M48
; DRILL file {KiCad (5.1.9)-1} date 11/28/21 22:55:19
; FORMAT={-:-/ absolute / inch / decimal}
; #@! TF.CreationDate,2021-11-28T22:55:19-05:00
; #@! TF.GenerationSoftware,Kicad,Pcbnew,(5.1.9)-1
; #@! TF.FileFunction,Plated,1,2,PTH
FMAT,2
INCH
T1C0.0157
T2C0.0295
T3C0.0300
T4C0.0315
T5C0.0374
T6C0.0394
T7C0.0433
T8C0.0472
T9C0.1260
%
G90
G05
T1
X10.0751Y-2.7444
X10.7566Y-3.0615
X10.7935Y-3.2259
X10.8Y-4.2199
X10.865Y-3.3624
X10.9103Y-3.4078
T2
X9.998Y-3.824
X10.048Y-3.824
X10.098Y-3.824
X10.204Y-2.272
X10.204Y-2.322
X10.204Y-2.372
T3
X11.65Y-2.45
X11.75Y-2.45
X11.835Y-1.555
X11.835Y-1.6925
X11.835Y-1.8325
X11.835Y-1.97
X11.835Y-2.1075
X11.835Y-2.245
X11.95Y-1.55
X11.95Y-1.65
X11.95Y-1.85
X11.95Y-1.95
X11.95Y-2.05
X11.95Y-2.15
T4
X11.3567Y-2.6992
X11.3567Y-2.7992
X11.3567Y-2.8992
X11.3567Y-2.9992
X11.3567Y-3.0992
X11.3567Y-3.1992
X11.3567Y-3.2992
X11.3567Y-3.3992
X11.36Y-3.6
X11.36Y-3.7
X11.36Y-3.8
X11.36Y-3.9
X11.36Y-4.0
X11.36Y-4.1
X11.36Y-4.2
X11.36Y-4.3
X11.8567Y-2.6992
X11.8567Y-2.7992
X11.8567Y-2.8992
X11.8567Y-2.9992
X11.8567Y-3.0992
X11.8567Y-3.1992
X11.8567Y-3.2992
X11.8567Y-3.3992
X11.86Y-3.6
X11.86Y-3.7
X11.86Y-3.8
X11.86Y-3.9
X11.86Y-4.0
X11.86Y-4.1
X11.86Y-4.2
X11.86Y-4.3
T5
X12.2Y-1.8516
X12.2Y-1.95
X12.2Y-2.0484
X12.2Y-2.1469
X12.2Y-2.9047
X12.2Y-3.0031
X12.2Y-3.1016
X12.2Y-3.2
X12.2Y-3.6
X12.2Y-3.6984
X12.2Y-3.7969
X12.2Y-3.8953
T6
X9.7Y-1.3
X9.7Y-1.4
X9.7Y-1.5
X9.7Y-1.8
X9.7Y-1.9
X9.7Y-2.0
X10.0Y-1.3
X10.0Y-1.4
X10.0Y-1.5
X10.0Y-1.8
X10.0Y-1.9
X10.0Y-2.0
X10.3Y-1.3
X10.3Y-1.4
X10.3Y-1.5
X10.4Y-2.8
X10.4Y-2.9
X10.4Y-3.0
X10.4Y-3.1
X10.4Y-3.2
X10.4Y-3.3
X10.4Y-3.4
X10.4Y-3.5
X10.4Y-3.6
X10.4Y-3.7
X10.4Y-3.8
X10.4Y-3.9
X10.4Y-4.0
X10.4Y-4.1
X10.4Y-4.2
X10.6Y-1.3
X10.6Y-1.4
X10.6Y-1.5
X10.6Y-1.6
X10.6Y-2.0
X10.6Y-2.1
X10.6Y-2.2
X11.0Y-2.8
X11.0Y-2.9
X11.0Y-3.0
X11.0Y-3.1
X11.0Y-3.2
X11.0Y-3.3
X11.0Y-3.4
X11.0Y-3.5
X11.0Y-3.6
X11.0Y-3.7
X11.0Y-3.8
X11.0Y-3.9
X11.0Y-4.0
X11.0Y-4.1
X11.0Y-4.2
X11.05Y-1.35
X11.05Y-1.4484
X11.05Y-1.55
X11.05Y-1.65
X11.05Y-1.75
X11.05Y-1.85
X11.05Y-1.95
X11.05Y-2.05
X11.05Y-2.15
X11.05Y-2.25
X11.05Y-2.35
X11.05Y-2.45
X11.1484Y-1.35
T7
X9.2828Y-2.9941
X9.2828Y-3.25
X9.3228Y-2.55
X9.3228Y-2.8059
X9.3228Y-3.45
X9.3228Y-3.7059
X9.46Y-2.9941
X9.46Y-3.25
X9.5Y-2.55
X9.5Y-2.8059
X9.5Y-3.45
X9.5Y-3.7059
X9.6828Y-2.9941
X9.6828Y-3.25
X9.86Y-2.9941
X9.86Y-3.25
T8
X9.5772Y-4.26
X9.715Y-4.26
X9.9922Y-4.26
X10.13Y-4.26
T9
X9.3Y-1.4
X9.3Y-4.3
X12.2Y-1.4
X12.2Y-4.3
T0
M30
