%TF.GenerationSoftware,KiCad,Pcbnew,(5.1.9)-1*%
%TF.CreationDate,2021-11-28T22:55:22-05:00*%
%TF.ProjectId,FilamentFactoryBoard,46696c61-6d65-46e7-9446-6163746f7279,rev?*%
%TF.SameCoordinates,Original*%
%TF.FileFunction,Copper,L2,Bot*%
%TF.FilePolarity,Positive*%
%FSLAX46Y46*%
G04 Gerber Fmt 4.6, Leading zero omitted, Abs format (unit mm)*
G04 Created by KiCad (PCBNEW (5.1.9)-1) date 2021-11-28 22:55:22*
%MOMM*%
%LPD*%
G01*
G04 APERTURE LIST*
%TA.AperFunction,ComponentPad*%
%ADD10R,1.500000X1.050000*%
%TD*%
%TA.AperFunction,ComponentPad*%
%ADD11O,1.500000X1.050000*%
%TD*%
%TA.AperFunction,ComponentPad*%
%ADD12R,1.050000X1.500000*%
%TD*%
%TA.AperFunction,ComponentPad*%
%ADD13O,1.050000X1.500000*%
%TD*%
%TA.AperFunction,ComponentPad*%
%ADD14C,2.000000*%
%TD*%
%TA.AperFunction,ComponentPad*%
%ADD15O,1.600000X1.600000*%
%TD*%
%TA.AperFunction,ComponentPad*%
%ADD16R,1.600000X1.600000*%
%TD*%
%TA.AperFunction,ComponentPad*%
%ADD17C,1.524000*%
%TD*%
%TA.AperFunction,ComponentPad*%
%ADD18O,1.700000X1.700000*%
%TD*%
%TA.AperFunction,ComponentPad*%
%ADD19R,1.700000X1.700000*%
%TD*%
%TA.AperFunction,ComponentPad*%
%ADD20C,2.400000*%
%TD*%
%TA.AperFunction,ComponentPad*%
%ADD21R,2.400000X2.400000*%
%TD*%
%TA.AperFunction,ComponentPad*%
%ADD22O,1.950000X1.700000*%
%TD*%
%TA.AperFunction,ComponentPad*%
%ADD23O,2.300000X1.500000*%
%TD*%
%TA.AperFunction,ComponentPad*%
%ADD24R,2.300000X1.500000*%
%TD*%
%TA.AperFunction,ComponentPad*%
%ADD25C,3.600000*%
%TD*%
%TA.AperFunction,ViaPad*%
%ADD26C,0.800000*%
%TD*%
%TA.AperFunction,Conductor*%
%ADD27C,0.550000*%
%TD*%
%TA.AperFunction,Conductor*%
%ADD28C,0.400000*%
%TD*%
%TA.AperFunction,Conductor*%
%ADD29C,0.600000*%
%TD*%
%TA.AperFunction,Conductor*%
%ADD30C,1.000000*%
%TD*%
%TA.AperFunction,Conductor*%
%ADD31C,0.800000*%
%TD*%
G04 APERTURE END LIST*
D10*
%TO.P,Q2,1*%
%TO.N,Net-(A1-Pad9)*%
X259181600Y-60248800D03*
D11*
%TO.P,Q2,3*%
%TO.N,Net-(FanPWM1-Pad1)*%
X259181600Y-57708800D03*
%TO.P,Q2,2*%
%TO.N,+24V*%
X259181600Y-58978800D03*
%TD*%
D12*
%TO.P,Q1,1*%
%TO.N,Net-(A1-Pad12)*%
X256489200Y-97129600D03*
D13*
%TO.P,Q1,3*%
%TO.N,Net-(HeaterControl1-Pad2)*%
X253949200Y-97129600D03*
%TO.P,Q1,2*%
%TO.N,+5V*%
X255219200Y-97129600D03*
%TD*%
D14*
%TO.P,SW2,1*%
%TO.N,GND*%
X236800000Y-87630000D03*
%TO.P,SW2,2*%
%TO.N,Net-(A1-Pad19)*%
X241300000Y-87630000D03*
%TO.P,SW2,1*%
%TO.N,GND*%
X236800000Y-94130000D03*
%TO.P,SW2,2*%
%TO.N,Net-(A1-Pad19)*%
X241300000Y-94130000D03*
%TD*%
D15*
%TO.P,A1,16*%
%TO.N,Net-(A1-Pad16)*%
X279400000Y-106680000D03*
%TO.P,A1,15*%
%TO.N,Net-(A1-Pad15)*%
X264160000Y-106680000D03*
%TO.P,A1,30*%
%TO.N,N/C*%
X279400000Y-71120000D03*
%TO.P,A1,14*%
%TO.N,Net-(A1-Pad14)*%
X264160000Y-104140000D03*
%TO.P,A1,29*%
%TO.N,GND*%
X279400000Y-73660000D03*
%TO.P,A1,13*%
%TO.N,Net-(A1-Pad13)*%
X264160000Y-101600000D03*
%TO.P,A1,28*%
%TO.N,N/C*%
X279400000Y-76200000D03*
%TO.P,A1,12*%
%TO.N,Net-(A1-Pad12)*%
X264160000Y-99060000D03*
%TO.P,A1,27*%
%TO.N,+5V*%
X279400000Y-78740000D03*
%TO.P,A1,11*%
%TO.N,Net-(A1-Pad11)*%
X264160000Y-96520000D03*
%TO.P,A1,26*%
%TO.N,Net-(A1-Pad26)*%
X279400000Y-81280000D03*
%TO.P,A1,10*%
%TO.N,Net-(A1-Pad10)*%
X264160000Y-93980000D03*
%TO.P,A1,25*%
%TO.N,Net-(A1-Pad25)*%
X279400000Y-83820000D03*
%TO.P,A1,9*%
%TO.N,Net-(A1-Pad9)*%
X264160000Y-91440000D03*
%TO.P,A1,24*%
%TO.N,Net-(A1-Pad24)*%
X279400000Y-86360000D03*
%TO.P,A1,8*%
%TO.N,Net-(A1-Pad8)*%
X264160000Y-88900000D03*
%TO.P,A1,23*%
%TO.N,Net-(A1-Pad23)*%
X279400000Y-88900000D03*
%TO.P,A1,7*%
%TO.N,Net-(A1-Pad7)*%
X264160000Y-86360000D03*
%TO.P,A1,22*%
%TO.N,Net-(A1-Pad22)*%
X279400000Y-91440000D03*
%TO.P,A1,6*%
%TO.N,Net-(A1-Pad6)*%
X264160000Y-83820000D03*
%TO.P,A1,21*%
%TO.N,Net-(A1-Pad21)*%
X279400000Y-93980000D03*
%TO.P,A1,5*%
%TO.N,Net-(A1-Pad5)*%
X264160000Y-81280000D03*
%TO.P,A1,20*%
%TO.N,Net-(A1-Pad20)*%
X279400000Y-96520000D03*
%TO.P,A1,4*%
%TO.N,GND*%
X264160000Y-78740000D03*
%TO.P,A1,19*%
%TO.N,Net-(A1-Pad19)*%
X279400000Y-99060000D03*
%TO.P,A1,3*%
%TO.N,N/C*%
X264160000Y-76200000D03*
%TO.P,A1,18*%
X279400000Y-101600000D03*
%TO.P,A1,2*%
%TO.N,Net-(A1-Pad2)*%
X264160000Y-73660000D03*
%TO.P,A1,17*%
%TO.N,N/C*%
X279400000Y-104140000D03*
D16*
%TO.P,A1,1*%
%TO.N,Net-(A1-Pad1)*%
X264160000Y-71120000D03*
%TD*%
D17*
%TO.P,AMIS1,13*%
%TO.N,+24V*%
X300609000Y-39497000D03*
%TO.P,AMIS1,14*%
%TO.N,GND*%
X300609000Y-42989500D03*
%TO.P,AMIS1,15*%
%TO.N,Net-(AMIS1-Pad15)*%
X300609000Y-46545500D03*
%TO.P,AMIS1,16*%
%TO.N,Net-(AMIS1-Pad16)*%
X300609000Y-50038000D03*
%TO.P,AMIS1,17*%
%TO.N,Net-(AMIS1-Pad17)*%
X300609000Y-53530500D03*
%TO.P,AMIS1,18*%
%TO.N,Net-(AMIS1-Pad18)*%
X300609000Y-57023000D03*
%TO.P,AMIS1,20*%
%TO.N,GND*%
X295910000Y-62230000D03*
%TO.P,AMIS1,19*%
%TO.N,+5V*%
X298450000Y-62230000D03*
%TO.P,AMIS1,13*%
%TO.N,+24V*%
X303530000Y-39370000D03*
%TO.P,AMIS1,14*%
%TO.N,GND*%
X303530000Y-41910000D03*
%TO.P,AMIS1,15*%
%TO.N,Net-(AMIS1-Pad15)*%
X303530000Y-46990000D03*
%TO.P,AMIS1,16*%
%TO.N,Net-(AMIS1-Pad16)*%
X303530000Y-49530000D03*
%TO.P,AMIS1,17*%
%TO.N,Net-(AMIS1-Pad17)*%
X303530000Y-52070000D03*
%TO.P,AMIS1,18*%
%TO.N,Net-(AMIS1-Pad18)*%
X303530000Y-54610000D03*
D18*
%TO.P,AMIS1,12*%
%TO.N,N/C*%
X283170000Y-34290000D03*
%TO.P,AMIS1,2*%
%TO.N,Net-(A1-Pad13)*%
X280670000Y-39370000D03*
%TO.P,AMIS1,11*%
%TO.N,Net-(A1-Pad26)*%
X280670000Y-62230000D03*
%TO.P,AMIS1,10*%
%TO.N,N/C*%
X280670000Y-59690000D03*
%TO.P,AMIS1,9*%
X280670000Y-57150000D03*
%TO.P,AMIS1,8*%
X280670000Y-54610000D03*
%TO.P,AMIS1,7*%
X280670000Y-52070000D03*
%TO.P,AMIS1,6*%
%TO.N,Net-(A1-Pad16)*%
X280670000Y-49530000D03*
%TO.P,AMIS1,5*%
%TO.N,Net-(A1-Pad15)*%
X280670000Y-46990000D03*
%TO.P,AMIS1,4*%
%TO.N,Net-(A1-Pad14)*%
X280670000Y-44450000D03*
%TO.P,AMIS1,3*%
%TO.N,N/C*%
X280670000Y-41910000D03*
%TO.P,AMIS1,0*%
X280670000Y-34290000D03*
D19*
%TO.P,AMIS1,1*%
%TO.N,GND*%
X280670000Y-36790000D03*
%TD*%
D20*
%TO.P,HeaterControl1,2*%
%TO.N,Net-(HeaterControl1-Pad2)*%
X246761000Y-108204000D03*
D21*
%TO.P,HeaterControl1,1*%
%TO.N,GND*%
X243261000Y-108204000D03*
%TD*%
D22*
%TO.P,J5,4*%
%TO.N,Net-(A3-Pad3)*%
X309880000Y-81280000D03*
%TO.P,J5,3*%
%TO.N,Net-(A3-Pad4)*%
X309880000Y-78780000D03*
%TO.P,J5,2*%
%TO.N,Net-(A3-Pad5)*%
X309880000Y-76280000D03*
%TO.P,J5,1*%
%TO.N,Net-(A3-Pad6)*%
%TA.AperFunction,ComponentPad*%
G36*
G01*
X309155000Y-72930000D02*
X310605000Y-72930000D01*
G75*
G02*
X310855000Y-73180000I0J-250000D01*
G01*
X310855000Y-74380000D01*
G75*
G02*
X310605000Y-74630000I-250000J0D01*
G01*
X309155000Y-74630000D01*
G75*
G02*
X308905000Y-74380000I0J250000D01*
G01*
X308905000Y-73180000D01*
G75*
G02*
X309155000Y-72930000I250000J0D01*
G01*
G37*
%TD.AperFunction*%
%TD*%
D20*
%TO.P,24V_IN1,2*%
%TO.N,+24V*%
X257302000Y-108204000D03*
D21*
%TO.P,24V_IN1,1*%
%TO.N,GND*%
X253802000Y-108204000D03*
%TD*%
D22*
%TO.P,J2,4*%
%TO.N,Net-(AMIS1-Pad15)*%
X309880000Y-47030000D03*
%TO.P,J2,3*%
%TO.N,Net-(AMIS1-Pad16)*%
X309880000Y-49530000D03*
%TO.P,J2,2*%
%TO.N,Net-(AMIS1-Pad17)*%
X309880000Y-52030000D03*
%TO.P,J2,1*%
%TO.N,Net-(AMIS1-Pad18)*%
%TA.AperFunction,ComponentPad*%
G36*
G01*
X310605000Y-55380000D02*
X309155000Y-55380000D01*
G75*
G02*
X308905000Y-55130000I0J250000D01*
G01*
X308905000Y-53930000D01*
G75*
G02*
X309155000Y-53680000I250000J0D01*
G01*
X310605000Y-53680000D01*
G75*
G02*
X310855000Y-53930000I0J-250000D01*
G01*
X310855000Y-55130000D01*
G75*
G02*
X310605000Y-55380000I-250000J0D01*
G01*
G37*
%TD.AperFunction*%
%TD*%
D23*
%TO.P,U1,3*%
%TO.N,+5V*%
X269240000Y-50800000D03*
%TO.P,U1,2*%
%TO.N,GND*%
X269240000Y-53340000D03*
D24*
%TO.P,U1,1*%
%TO.N,+24V*%
X269240000Y-55880000D03*
%TD*%
D14*
%TO.P,SW4,1*%
%TO.N,GND*%
X236800000Y-64770000D03*
%TO.P,SW4,2*%
%TO.N,Net-(A1-Pad1)*%
X241300000Y-64770000D03*
%TO.P,SW4,1*%
%TO.N,GND*%
X236800000Y-71270000D03*
%TO.P,SW4,2*%
%TO.N,Net-(A1-Pad1)*%
X241300000Y-71270000D03*
%TD*%
%TO.P,SW3,1*%
%TO.N,GND*%
X235784000Y-76050000D03*
%TO.P,SW3,2*%
%TO.N,Net-(A1-Pad2)*%
X240284000Y-76050000D03*
%TO.P,SW3,1*%
%TO.N,GND*%
X235784000Y-82550000D03*
%TO.P,SW3,2*%
%TO.N,Net-(A1-Pad2)*%
X240284000Y-82550000D03*
%TD*%
%TO.P,SW1,1*%
%TO.N,GND*%
X245944000Y-76050000D03*
%TO.P,SW1,2*%
%TO.N,Net-(A1-Pad20)*%
X250444000Y-76050000D03*
%TO.P,SW1,1*%
%TO.N,GND*%
X245944000Y-82550000D03*
%TO.P,SW1,2*%
%TO.N,Net-(A1-Pad20)*%
X250444000Y-82550000D03*
%TD*%
D18*
%TO.P,Thermistor1,3*%
%TO.N,+5V*%
X261620000Y-38100000D03*
%TO.P,Thermistor1,2*%
%TO.N,Net-(A1-Pad25)*%
X261620000Y-35560000D03*
D19*
%TO.P,Thermistor1,1*%
%TO.N,GND*%
X261620000Y-33020000D03*
%TD*%
D18*
%TO.P,ServoPWM1,3*%
%TO.N,GND*%
X246380000Y-45720000D03*
%TO.P,ServoPWM1,2*%
%TO.N,+5V*%
X246380000Y-48260000D03*
D19*
%TO.P,ServoPWM1,1*%
%TO.N,Net-(A1-Pad8)*%
X246380000Y-50800000D03*
%TD*%
D18*
%TO.P,POT_tensionSensor1,3*%
%TO.N,+5V*%
X254000000Y-38100000D03*
%TO.P,POT_tensionSensor1,2*%
%TO.N,Net-(A1-Pad22)*%
X254000000Y-35560000D03*
D19*
%TO.P,POT_tensionSensor1,1*%
%TO.N,GND*%
X254000000Y-33020000D03*
%TD*%
D18*
%TO.P,LCD_I2C1,4*%
%TO.N,Net-(A1-Pad24)*%
X269240000Y-40640000D03*
%TO.P,LCD_I2C1,3*%
%TO.N,Net-(A1-Pad23)*%
X269240000Y-38100000D03*
%TO.P,LCD_I2C1,2*%
%TO.N,+5V*%
X269240000Y-35560000D03*
D19*
%TO.P,LCD_I2C1,1*%
%TO.N,GND*%
X269240000Y-33020000D03*
%TD*%
D22*
%TO.P,J4,4*%
%TO.N,Net-(A2-Pad3)*%
X309880000Y-98940000D03*
%TO.P,J4,3*%
%TO.N,Net-(A2-Pad4)*%
X309880000Y-96440000D03*
%TO.P,J4,2*%
%TO.N,Net-(A2-Pad5)*%
X309880000Y-93940000D03*
%TO.P,J4,1*%
%TO.N,Net-(A2-Pad6)*%
%TA.AperFunction,ComponentPad*%
G36*
G01*
X309155000Y-90590000D02*
X310605000Y-90590000D01*
G75*
G02*
X310855000Y-90840000I0J-250000D01*
G01*
X310855000Y-92040000D01*
G75*
G02*
X310605000Y-92290000I-250000J0D01*
G01*
X309155000Y-92290000D01*
G75*
G02*
X308905000Y-92040000I0J250000D01*
G01*
X308905000Y-90840000D01*
G75*
G02*
X309155000Y-90590000I250000J0D01*
G01*
G37*
%TD.AperFunction*%
%TD*%
D25*
%TO.P,H4,1*%
%TO.N,N/C*%
X236220000Y-109220000D03*
%TD*%
%TO.P,H3,1*%
%TO.N,N/C*%
X309880000Y-109220000D03*
%TD*%
%TO.P,H2,1*%
%TO.N,N/C*%
X236220000Y-35560000D03*
%TD*%
%TO.P,H1,1*%
%TO.N,N/C*%
X309880000Y-35560000D03*
%TD*%
D18*
%TO.P,FanPWM1,3*%
%TO.N,GND*%
X254000000Y-45720000D03*
%TO.P,FanPWM1,2*%
%TO.N,+24V*%
X254000000Y-48260000D03*
D19*
%TO.P,FanPWM1,1*%
%TO.N,Net-(FanPWM1-Pad1)*%
X254000000Y-50800000D03*
%TD*%
D18*
%TO.P,conductivitySensor1,3*%
%TO.N,+5V*%
X246380000Y-38100000D03*
%TO.P,conductivitySensor1,2*%
%TO.N,Net-(A1-Pad21)*%
X246380000Y-35560000D03*
D19*
%TO.P,conductivitySensor1,1*%
%TO.N,GND*%
X246380000Y-33020000D03*
%TD*%
D15*
%TO.P,A3,16*%
%TO.N,Net-(A1-Pad5)*%
X288461000Y-86339000D03*
%TO.P,A3,8*%
%TO.N,+24V*%
X301161000Y-68559000D03*
%TO.P,A3,15*%
%TO.N,Net-(A1-Pad6)*%
X288461000Y-83799000D03*
%TO.P,A3,7*%
%TO.N,GND*%
X301161000Y-71099000D03*
%TO.P,A3,14*%
%TO.N,N/C*%
X288461000Y-81259000D03*
%TO.P,A3,6*%
%TO.N,Net-(A3-Pad6)*%
X301161000Y-73639000D03*
%TO.P,A3,13*%
%TO.N,N/C*%
X288461000Y-78719000D03*
%TO.P,A3,5*%
%TO.N,Net-(A3-Pad5)*%
X301161000Y-76179000D03*
%TO.P,A3,12*%
%TO.N,N/C*%
X288461000Y-76179000D03*
%TO.P,A3,4*%
%TO.N,Net-(A3-Pad4)*%
X301161000Y-78719000D03*
%TO.P,A3,11*%
%TO.N,N/C*%
X288461000Y-73639000D03*
%TO.P,A3,3*%
%TO.N,Net-(A3-Pad3)*%
X301161000Y-81259000D03*
%TO.P,A3,10*%
%TO.N,N/C*%
X288461000Y-71099000D03*
%TO.P,A3,2*%
%TO.N,+5V*%
X301161000Y-83799000D03*
%TO.P,A3,9*%
%TO.N,Net-(A1-Pad7)*%
X288461000Y-68559000D03*
D16*
%TO.P,A3,1*%
%TO.N,GND*%
X301161000Y-86339000D03*
%TD*%
D15*
%TO.P,A2,16*%
%TO.N,Net-(A1-Pad10)*%
X288544000Y-109220000D03*
%TO.P,A2,8*%
%TO.N,+24V*%
X301244000Y-91440000D03*
%TO.P,A2,15*%
%TO.N,Net-(A1-Pad11)*%
X288544000Y-106680000D03*
%TO.P,A2,7*%
%TO.N,GND*%
X301244000Y-93980000D03*
%TO.P,A2,14*%
%TO.N,N/C*%
X288544000Y-104140000D03*
%TO.P,A2,6*%
%TO.N,Net-(A2-Pad6)*%
X301244000Y-96520000D03*
%TO.P,A2,13*%
%TO.N,N/C*%
X288544000Y-101600000D03*
%TO.P,A2,5*%
%TO.N,Net-(A2-Pad5)*%
X301244000Y-99060000D03*
%TO.P,A2,12*%
%TO.N,N/C*%
X288544000Y-99060000D03*
%TO.P,A2,4*%
%TO.N,Net-(A2-Pad4)*%
X301244000Y-101600000D03*
%TO.P,A2,11*%
%TO.N,N/C*%
X288544000Y-96520000D03*
%TO.P,A2,3*%
%TO.N,Net-(A2-Pad3)*%
X301244000Y-104140000D03*
%TO.P,A2,10*%
%TO.N,N/C*%
X288544000Y-93980000D03*
%TO.P,A2,2*%
%TO.N,+5V*%
X301244000Y-106680000D03*
%TO.P,A2,9*%
%TO.N,Net-(A1-Pad7)*%
X288544000Y-91440000D03*
D16*
%TO.P,A2,1*%
%TO.N,GND*%
X301244000Y-109220000D03*
%TD*%
D26*
%TO.N,Net-(A1-Pad14)*%
X277122200Y-86558100D03*
%TO.N,Net-(A1-Pad13)*%
X275969900Y-85405800D03*
%TO.N,Net-(A1-Pad10)*%
X274320000Y-107186400D03*
%TO.N,Net-(A1-Pad25)*%
X273216500Y-77761000D03*
%TO.N,Net-(A1-Pad24)*%
X274156000Y-81937600D03*
%TO.N,Net-(A1-Pad8)*%
X255906500Y-69707900D03*
%TD*%
D27*
%TO.N,Net-(A1-Pad16)*%
X281233400Y-104846600D02*
X279400000Y-106680000D01*
D28*
X280670000Y-49530000D02*
X283108400Y-49530000D01*
X283108400Y-102971600D02*
X282575000Y-103505000D01*
X283108400Y-49530000D02*
X283108400Y-102971600D01*
X282575000Y-103505000D02*
X281233400Y-104846600D01*
X282956000Y-103124000D02*
X282575000Y-103505000D01*
D27*
%TO.N,Net-(A1-Pad15)*%
X264160000Y-106680000D02*
X265435300Y-106680000D01*
X265435300Y-106680000D02*
X269253400Y-110498100D01*
D28*
X269253400Y-110498100D02*
X269502100Y-110498100D01*
X269502100Y-110498100D02*
X270764000Y-111760000D01*
X270764000Y-111760000D02*
X290576000Y-111760000D01*
X290576000Y-111760000D02*
X292100000Y-110236000D01*
D29*
X292100000Y-110236000D02*
X292100000Y-49530000D01*
X292100000Y-49530000D02*
X289560000Y-46990000D01*
X289560000Y-46990000D02*
X280670000Y-46990000D01*
D28*
%TO.N,Net-(A1-Pad14)*%
X277122200Y-46727800D02*
X279400000Y-44450000D01*
X277122200Y-86558100D02*
X277122200Y-46727800D01*
X280670000Y-44450000D02*
X279400000Y-44450000D01*
D27*
%TO.N,GND*%
X244570000Y-73660000D02*
X239190000Y-73660000D01*
X239190000Y-73660000D02*
X236800000Y-71270000D01*
X302564300Y-92659700D02*
X301244000Y-93980000D01*
D28*
X244570000Y-73660000D02*
X244856000Y-73660000D01*
X245944000Y-74748000D02*
X245944000Y-76050000D01*
X244856000Y-73660000D02*
X245944000Y-74748000D01*
X303784000Y-91440000D02*
X302564300Y-92659700D01*
X303784000Y-90170000D02*
X303784000Y-91440000D01*
D29*
X245364000Y-33020000D02*
X246380000Y-33020000D01*
D30*
X301244000Y-93980000D02*
X299059600Y-93980000D01*
X299059600Y-93980000D02*
X296926000Y-96113600D01*
X296926000Y-96113600D02*
X296926000Y-106883200D01*
X299262800Y-109220000D02*
X301244000Y-109220000D01*
X296926000Y-106883200D02*
X299262800Y-109220000D01*
X301244000Y-93980000D02*
X301853600Y-93980000D01*
X301853600Y-93980000D02*
X304038000Y-91795600D01*
X304038000Y-89216000D02*
X301161000Y-86339000D01*
X304038000Y-91795600D02*
X304038000Y-89216000D01*
D31*
X235784000Y-72286000D02*
X236800000Y-71270000D01*
X235784000Y-76050000D02*
X235784000Y-72286000D01*
D28*
%TO.N,Net-(A1-Pad13)*%
X275969900Y-41022100D02*
X275969900Y-85405800D01*
X277622000Y-39370000D02*
X275969900Y-41022100D01*
X280670000Y-39370000D02*
X277622000Y-39370000D01*
D31*
%TO.N,Net-(A1-Pad12)*%
X258419600Y-99060000D02*
X256489200Y-97129600D01*
X264160000Y-99060000D02*
X258419600Y-99060000D01*
D28*
%TO.N,+5V*%
X248920000Y-41965300D02*
X247725300Y-40770600D01*
D30*
X298450000Y-59639200D02*
X298450000Y-62230000D01*
X294995600Y-40233600D02*
X294995600Y-56184800D01*
X294995600Y-56184800D02*
X298450000Y-59639200D01*
X286664400Y-31902400D02*
X294995600Y-40233600D01*
X272796000Y-35560000D02*
X276453600Y-31902400D01*
X276453600Y-31902400D02*
X286664400Y-31902400D01*
X269240000Y-35560000D02*
X272796000Y-35560000D01*
D31*
X255219200Y-97129600D02*
X255219200Y-92151200D01*
X255219200Y-92151200D02*
X253034800Y-89966800D01*
X253034800Y-89966800D02*
X253034800Y-58166000D01*
X253034800Y-58166000D02*
X249834400Y-54965600D01*
D27*
X247342950Y-40388250D02*
X246380000Y-39425300D01*
X247725300Y-40770600D02*
X247342950Y-40388250D01*
D31*
X249631200Y-48260000D02*
X249834400Y-48056800D01*
X246380000Y-48260000D02*
X249631200Y-48260000D01*
X249834400Y-48056800D02*
X249834400Y-42879700D01*
X249834400Y-54965600D02*
X249834400Y-48056800D01*
X246380000Y-39425300D02*
X247952550Y-40997850D01*
X246380000Y-38100000D02*
X246380000Y-39425300D01*
X247952550Y-40997850D02*
X247342950Y-40388250D01*
X249834400Y-42879700D02*
X247952550Y-40997850D01*
D27*
%TO.N,Net-(A1-Pad11)*%
X288544000Y-106680000D02*
X287268700Y-106680000D01*
X264160000Y-96520000D02*
X265435300Y-96520000D01*
X265435300Y-96520000D02*
X265435300Y-96679400D01*
X285211600Y-108737100D02*
X287268700Y-106680000D01*
D28*
X285211600Y-108737100D02*
X284962900Y-108737100D01*
X284962900Y-108737100D02*
X284480000Y-109220000D01*
X284480000Y-109220000D02*
X274320000Y-109220000D01*
X274320000Y-109220000D02*
X266700000Y-101600000D01*
X266700000Y-97784700D02*
X265435300Y-96520000D01*
X266700000Y-101600000D02*
X266700000Y-97784700D01*
%TO.N,Net-(A1-Pad26)*%
X280670000Y-62230000D02*
X280670000Y-67310000D01*
X280670000Y-67310000D02*
X282498800Y-69138800D01*
X282498800Y-69138800D02*
X282498800Y-80010000D01*
X281228800Y-81280000D02*
X279400000Y-81280000D01*
X282498800Y-80010000D02*
X281228800Y-81280000D01*
D27*
%TO.N,Net-(A1-Pad10)*%
X264160000Y-93980000D02*
X265435300Y-93980000D01*
D28*
X265435300Y-93980000D02*
X266700000Y-93980000D01*
X266700000Y-93980000D02*
X269240000Y-96520000D01*
X269240000Y-102106400D02*
X274320000Y-107186400D01*
X269240000Y-96520000D02*
X269240000Y-102106400D01*
D27*
%TO.N,Net-(A1-Pad25)*%
X261620000Y-35560000D02*
X273216500Y-47156500D01*
X273216500Y-47156500D02*
X273216500Y-77761000D01*
%TO.N,Net-(A1-Pad9)*%
X264160000Y-91440000D02*
X254983500Y-82263500D01*
D31*
X259181600Y-60437800D02*
X254983500Y-64635900D01*
X259181600Y-60248800D02*
X259181600Y-60437800D01*
D27*
X254983500Y-82263500D02*
X254983500Y-64635900D01*
%TO.N,Net-(A1-Pad24)*%
X269240000Y-41965300D02*
X274156000Y-46881300D01*
X274156000Y-46881300D02*
X274156000Y-81937600D01*
X269240000Y-40640000D02*
X269240000Y-41965300D01*
%TO.N,Net-(A1-Pad8)*%
X264160000Y-88900000D02*
X255906500Y-80646500D01*
X255906500Y-80646500D02*
X255906500Y-69707900D01*
%TO.N,Net-(A1-Pad23)*%
X279400000Y-88900000D02*
X278124700Y-88900000D01*
X278124700Y-88900000D02*
X275084700Y-85860000D01*
X275084700Y-85860000D02*
X275084700Y-43944700D01*
X275084700Y-43944700D02*
X269240000Y-38100000D01*
%TO.N,Net-(A1-Pad7)*%
X288461000Y-68559000D02*
X287131600Y-69888400D01*
X287131600Y-69888400D02*
X287131600Y-88752300D01*
X287131600Y-88752300D02*
X288544000Y-90164700D01*
X288544000Y-91440000D02*
X288544000Y-90164700D01*
X264160000Y-86360000D02*
X275590000Y-97790000D01*
D28*
X285496000Y-104140000D02*
X285496000Y-94488000D01*
X275844000Y-106680000D02*
X277368000Y-108204000D01*
X281432000Y-108204000D02*
X285496000Y-104140000D01*
X275590000Y-106680000D02*
X275844000Y-106680000D01*
X277368000Y-108204000D02*
X281432000Y-108204000D01*
X275590000Y-97790000D02*
X275590000Y-106680000D01*
D27*
X285496000Y-94488000D02*
X288544000Y-91440000D01*
%TO.N,Net-(A1-Pad22)*%
X279400000Y-91440000D02*
X267614600Y-79654600D01*
X267614600Y-79654600D02*
X267614600Y-49174600D01*
X267614600Y-49174600D02*
X254000000Y-35560000D01*
D28*
%TO.N,Net-(A1-Pad21)*%
X246380000Y-35560000D02*
X248412000Y-35560000D01*
X248412000Y-35560000D02*
X250317000Y-37465000D01*
X250317000Y-37465000D02*
X250317000Y-39624000D01*
X250317000Y-39624000D02*
X253365000Y-42672000D01*
X253365000Y-42672000D02*
X256921000Y-42672000D01*
X266319000Y-52070000D02*
X266319000Y-56007000D01*
X256921000Y-42672000D02*
X266319000Y-52070000D01*
X279400000Y-93980000D02*
X276098000Y-93980000D01*
X266319000Y-84201000D02*
X266319000Y-80645000D01*
X276098000Y-93980000D02*
X266319000Y-84201000D01*
D27*
X266319000Y-80645000D02*
X266319000Y-56007000D01*
X266319000Y-81407000D02*
X266319000Y-80645000D01*
%TO.N,Net-(A1-Pad20)*%
X250444000Y-82804000D02*
X250444000Y-76304000D01*
%TO.N,+24V*%
X299828200Y-69891800D02*
X301161000Y-68559000D01*
X300103650Y-89024350D02*
X299828200Y-88748900D01*
D30*
X306705000Y-63015000D02*
X301161000Y-68559000D01*
X306705000Y-40640000D02*
X306705000Y-63015000D01*
X305435000Y-39370000D02*
X306705000Y-40640000D01*
X303530000Y-39370000D02*
X305435000Y-39370000D01*
X299085000Y-91440000D02*
X301244000Y-91440000D01*
X294640000Y-95885000D02*
X299085000Y-91440000D01*
X294640000Y-109855000D02*
X294640000Y-95885000D01*
X291465000Y-113030000D02*
X294640000Y-109855000D01*
X262128000Y-113030000D02*
X291465000Y-113030000D01*
X257302000Y-108204000D02*
X262128000Y-113030000D01*
X301244000Y-90164700D02*
X300560850Y-89481550D01*
X301244000Y-91440000D02*
X301244000Y-90164700D01*
D27*
X300560850Y-89481550D02*
X300103650Y-89024350D01*
D30*
X300560850Y-89481550D02*
X297182650Y-86103350D01*
D28*
X300103650Y-89024350D02*
X297182650Y-86103350D01*
D30*
X297182650Y-72537350D02*
X301161000Y-68559000D01*
X297182650Y-86103350D02*
X297182650Y-72537350D01*
D31*
%TO.N,Net-(HeaterControl1-Pad2)*%
X246761000Y-104317800D02*
X253949200Y-97129600D01*
X246761000Y-108204000D02*
X246761000Y-104317800D01*
%TD*%
M02*
